<svg xmlns="http://www.w3.org/2000/svg" viewBox="0 0 730 140" role="img" aria-label="AI KICK MASTER">
  <g fill="#E3172E" transform="translate(8 10)"><path d="M8 94h31l18-32-15-27z"/><path d="M45 22h27l48 72H90z"/><path d="M122 19h29l-18 38h-25z"/></g>
  <g><path fill="#071C49" d="M182.7 90 205.47 48.77H218.34L226.54 90H215.49L214.28 82.84H197.71L194.02 90ZM201.79 74.8H213L211.59 66.23Q211.45 65.18 211.29 64.12Q211.12 63.06 210.95 62.02Q210.77 60.97 210.65 59.99Q210.53 59.01 210.41 58.13H210.14Q209.54 59.4 208.83 60.86Q208.11 62.32 207.43 63.72Q206.74 65.12 206.14 66.31ZM231.96 90 239.25 48.77H250.02L242.73 90Z"/><path fill="#E3172E" d="M268.7 90 275.99 48.77H286.76L283.63 66.43L302.43 48.77H316.34L298.06 65.65L309.38 90H297.1L289.64 72.84L281.3 79.76L279.47 90ZM315.4 90 322.69 48.77H333.46L326.17 90ZM355.12 90.72Q346.26 90.72 341.61 86.76Q336.97 82.81 336.97 74.66Q336.97 73.15 337.12 71.62Q337.27 70.1 337.51 68.54Q338.68 61.97 341.73 57.4Q344.78 52.82 349.65 50.44Q354.51 48.05 361.01 48.05Q366.27 48.05 370.2 49.55Q374.13 51.04 376.31 53.98Q378.49 56.92 378.49 61.34Q378.49 62.18 378.4 63.09Q378.31 64 378.15 64.93H367.6Q367.72 64.39 367.75 63.88Q367.78 63.37 367.78 62.95Q367.78 60.85 366.93 59.41Q366.08 57.97 364.5 57.22Q362.91 56.48 360.63 56.48Q358.09 56.48 356.1 57.28Q354.11 58.07 352.66 59.55Q351.2 61.03 350.24 63.12Q349.29 65.2 348.82 67.74Q348.55 69.27 348.36 70.32Q348.18 71.37 348.09 72.08Q348 72.8 347.97 73.32Q347.94 73.83 347.94 74.33Q347.94 76.88 348.77 78.67Q349.59 80.46 351.33 81.38Q353.07 82.3 355.69 82.3Q358.64 82.3 360.84 81.33Q363.04 80.36 364.47 78.5Q365.9 76.64 366.38 74H376.56Q375.63 79.53 372.77 83.25Q369.91 86.97 365.44 88.85Q360.97 90.72 355.12 90.72ZM381.26 90 388.55 48.77H399.32L396.19 66.43L414.99 48.77H428.9L410.62 65.65L421.94 90H409.66L402.2 72.84L393.86 79.76L392.03 90Z"/><path fill="#071C49" d="M436.7 90 443.99 48.77H459.04L460.88 67.13Q460.99 68.15 461.12 69.84Q461.24 71.52 461.36 73.3Q461.49 75.08 461.52 76.48H461.94Q462.52 75.02 463.15 73.41Q463.79 71.81 464.47 70.17Q465.15 68.54 465.79 67.07L474.1 48.77H489.82L482.53 90H472.09L475.66 69.83Q475.97 68.1 476.39 66.06Q476.82 64.02 477.25 62.16Q477.68 60.3 477.97 59.22H477.52Q477.28 59.85 476.91 60.82Q476.53 61.78 476.17 62.7Q475.81 63.62 475.5 64.26L463.62 90H454.55L452.13 64.54Q452.04 63.27 451.93 61.83Q451.82 60.38 451.73 59.25H451.31Q451.23 60.85 451.08 62.8Q450.93 64.75 450.71 66.61Q450.5 68.48 450.25 69.83L446.68 90ZM488.04 90 510.81 48.77H523.68L531.88 90H520.83L519.62 82.84H503.05L499.36 90ZM507.13 74.8H518.34L516.93 66.23Q516.79 65.18 516.63 64.12Q516.46 63.06 516.29 62.02Q516.11 60.97 515.99 59.99Q515.87 59.01 515.75 58.13H515.48Q514.88 59.4 514.17 60.86Q513.45 62.32 512.77 63.72Q512.08 65.12 511.48 66.31ZM555.43 90.72Q551.54 90.72 548.19 90.16Q544.84 89.59 542.35 88.35Q539.87 87.11 538.46 85.03Q537.06 82.95 537.06 79.96Q537.06 79.12 537.18 78.14Q537.3 77.17 537.51 76.38H547.91Q547.76 76.8 547.65 77.33Q547.55 77.87 547.55 78.31Q547.55 79.8 548.44 80.74Q549.33 81.69 550.96 82.11Q552.59 82.53 554.74 82.53Q556.46 82.53 557.94 82.29Q559.41 82.05 560.53 81.54Q561.64 81.04 562.26 80.2Q562.87 79.36 562.87 78.2Q562.87 77.05 562.05 76.27Q561.22 75.49 559.81 74.92Q558.39 74.34 556.62 73.88Q554.85 73.43 552.93 72.92Q550.77 72.32 548.62 71.55Q546.47 70.77 544.71 69.54Q542.95 68.31 541.91 66.48Q540.86 64.65 540.86 62.01Q540.86 58.28 542.42 55.65Q543.98 53.02 546.63 51.34Q549.28 49.65 552.61 48.85Q555.95 48.05 559.47 48.05Q563.02 48.05 566.05 48.66Q569.08 49.26 571.32 50.51Q573.57 51.76 574.83 53.7Q576.1 55.65 576.1 58.3Q576.1 58.8 576.04 59.44Q575.98 60.09 575.8 61.17H565.52Q565.63 60.64 565.64 60.37Q565.66 60.11 565.66 59.89Q565.66 58.16 564.17 57.06Q562.68 55.96 559.72 55.96Q557.36 55.96 555.65 56.48Q553.95 57 553.05 57.88Q552.16 58.76 552.16 59.92Q552.16 60.84 552.72 61.5Q553.29 62.17 554.31 62.67Q555.33 63.18 556.7 63.59Q558.07 64 559.65 64.38Q562.02 64.97 564.57 65.73Q567.13 66.49 569.34 67.73Q571.55 68.97 572.9 70.92Q574.26 72.87 574.26 75.79Q574.26 79.66 572.7 82.48Q571.13 85.3 568.47 87.13Q565.81 88.96 562.43 89.84Q559.05 90.72 555.43 90.72ZM590 90 595.73 57.58H582.36L583.92 48.77H621.39L619.86 57.58H606.5L600.76 90ZM620.62 90 627.91 48.77H662L660.51 57.2H637.22L635.84 64.92H656.19L654.76 73.12H634.38L632.88 81.58H656.59L655.1 90ZM663.09 90 670.35 48.77H693.45Q697.71 48.77 700.49 50.13Q703.28 51.49 704.66 53.82Q706.04 56.15 706.04 59.2Q706.04 62.9 704.91 65.72Q703.78 68.54 701.71 70.52Q699.64 72.5 696.71 73.7L702.13 90H690.36L686.06 75.51H676.43L673.86 90ZM677.86 67.51H688.56Q690.23 67.51 691.67 66.68Q693.12 65.85 694.01 64.38Q694.9 62.91 694.9 60.94Q694.9 59.07 693.82 58Q692.75 56.93 690.8 56.93H679.69Z"/></g>
</svg>
